# xmcd
#
# Track frame offsets:
#	150
#	83295
#	131862
#	165670
#
# Disc length: 2795 seconds
#
# Revision: 1
# Processed by: cddbd v1.4PL0 Copyright (c) Steve Scherf et al.
# Submitted via: audiograbber 1.81.01
#
DISCID=260ae904
DTITLE=Olivier Messiaen - Petites esquisses d'oiseaux - Catalogue d'oiseaux - D
DTITLE=isc 3
DYEAR=1900
DGENRE=Classical
TTITLE0=Catalogue d'oiseaux - X. Le Marche de roches 7e Livre
TTITLE1=Catalogue d'oiseaux - XI. La buse variable
TTITLE2=Catalogue d'oiseaux - XII. La traquet rieur
TTITLE3=Catalogue d'oiseaux - XIII. Le courlis cendré
EXTD=
EXTT0=
EXTT1=
EXTT2=
EXTT3=
PLAYORDER=
